<svg xmlns="http://www.w3.org/2000/svg" fill="none" viewBox="0 0 147 49"><path fill="#F5F6FF" fill-rule="evenodd" d="M11.713 0h123.581a96.13 96.13 0 0 1 2.257.014l.207.004c.823.009 1.645.081 2.457.216a8.336 8.336 0 0 1 2.344.768 7.933 7.933 0 0 1 3.438 3.43c.371.734.627 1.52.761 2.332.137.81.213 1.63.228 2.452.004.376.004.753.004 1.128.01.444.01.89.01 1.338v25.637c0 .453 0 .895-.01 1.34 0 .38 0 .75-.004 1.13a16.527 16.527 0 0 1-.228 2.452 8.1 8.1 0 0 1-.761 2.333 7.859 7.859 0 0 1-1.451 1.977 7.729 7.729 0 0 1-1.987 1.444 8.385 8.385 0 0 1-2.344.773c-.812.134-1.634.206-2.457.216-.374.009-.758.014-1.133.014-.441.002-.89.002-1.331.002H11.713c-.45 0-.896 0-1.345-.002-.376 0-.75-.005-1.129-.014a16.589 16.589 0 0 1-2.462-.216 8.25 8.25 0 0 1-2.335-.773 7.709 7.709 0 0 1-1.988-1.444 7.606 7.606 0 0 1-1.447-1.977 8.053 8.053 0 0 1-.768-2.333 15.86 15.86 0 0 1-.22-2.452c-.008-.26-.011-.515-.014-.771A92.041 92.041 0 0 0 0 38.659V10.344l.005-.361c.003-.256.006-.512.014-.767.01-.822.083-1.642.22-2.452a8.07 8.07 0 0 1 .768-2.332 7.907 7.907 0 0 1 3.436-3.43A8.204 8.204 0 0 1 6.776.236 16.278 16.278 0 0 1 9.24.018l.236-.004A89.727 89.727 0 0 1 11.713 0Zm-2.45 47.916c.372.008.738.013 1.112.013l124.92.002 1.331-.002c.366 0 .743-.005 1.103-.013a15.44 15.44 0 0 0 2.296-.2 7.214 7.214 0 0 0 2.049-.674 6.646 6.646 0 0 0 1.719-1.252 6.714 6.714 0 0 0 1.248-1.698 7.026 7.026 0 0 0 .663-2.045c.125-.751.196-1.51.21-2.27.005-.376.005-.741.005-1.14.009-.437.009-.87.009-1.315V11.68c0-.44 0-.876-.009-1.335 0-.37 0-.743-.004-1.09a15.854 15.854 0 0 0-.213-2.312 7.055 7.055 0 0 0-.658-2.02 6.863 6.863 0 0 0-2.966-2.965 7.31 7.31 0 0 0-2.053-.67 15.256 15.256 0 0 0-2.283-.2l-1.122-.015H10.375l-1.108.015a15.6 15.6 0 0 0-2.304.2 7.167 7.167 0 0 0-2.031.667 6.836 6.836 0 0 0-2.97 2.965 7.037 7.037 0 0 0-.667 2.036 15.112 15.112 0 0 0-.204 2.293c-.007.25-.018 1.096-.018 1.096v28.298s.01.86.018 1.119c.01.77.078 1.537.205 2.297.117.706.342 1.391.667 2.03a6.52 6.52 0 0 0 1.253 1.71 6.64 6.64 0 0 0 1.717 1.246 7.24 7.24 0 0 0 2.035.671c.76.123 1.527.19 2.296.2Z" clip-rule="evenodd"/><path fill="#F5F6FF" d="M30.707 24.365a6.292 6.292 0 0 1 3.01-5.289 6.486 6.486 0 0 0-5.099-2.749c-2.144-.224-4.224 1.28-5.317 1.28-1.114 0-2.797-1.257-4.61-1.22a6.804 6.804 0 0 0-3.316.987 6.78 6.78 0 0 0-2.398 2.488c-2.47 4.265-.627 10.534 1.74 13.982 1.183 1.688 2.567 3.574 4.378 3.508 1.772-.074 2.434-1.127 4.572-1.127 2.12 0 2.74 1.127 4.588 1.084 1.901-.03 3.099-1.696 4.241-3.4a13.947 13.947 0 0 0 1.94-3.94 6.105 6.105 0 0 1-2.71-2.242 6.08 6.08 0 0 1-1.02-3.362Zm-3.49-10.305a6.195 6.195 0 0 0 1.424-4.447 6.339 6.339 0 0 0-4.097 2.114 5.902 5.902 0 0 0-1.461 4.282 5.249 5.249 0 0 0 4.134-1.95Zm24.748 19.186H46.15l-1.396 4.112h-2.463L47.8 22.146h2.559l5.507 15.212H53.36l-1.395-4.112Zm-5.212-1.897h4.609l-2.272-6.673h-.064l-2.273 6.673Zm21.007.464c0 3.446-1.85 5.66-4.642 5.66a3.779 3.779 0 0 1-3.499-1.94h-.053v5.494h-2.283v-14.76h2.21v1.844h.042a3.94 3.94 0 0 1 3.541-1.96c2.823 0 4.684 2.225 4.684 5.662Zm-2.347 0c0-2.246-1.163-3.722-2.939-3.722-1.744 0-2.917 1.507-2.917 3.722 0 2.234 1.173 3.731 2.917 3.731 1.776 0 2.94-1.465 2.94-3.731Zm14.589 0c0 3.446-1.85 5.66-4.642 5.66a3.779 3.779 0 0 1-3.5-1.94h-.053v5.494h-2.283v-14.76h2.21v1.844h.042a3.94 3.94 0 0 1 3.541-1.96c2.823 0 4.685 2.225 4.685 5.662Zm-2.347 0c0-2.246-1.164-3.722-2.94-3.722-1.744 0-2.917 1.507-2.917 3.722 0 2.234 1.173 3.731 2.917 3.731 1.776 0 2.94-1.465 2.94-3.731ZM88.09 33.12c.17 1.508 1.64 2.498 3.648 2.498 1.924 0 3.308-.99 3.308-2.35 0-1.181-.835-1.888-2.812-2.373l-1.977-.475c-2.8-.674-4.101-1.98-4.101-4.1 0-2.625 2.293-4.428 5.55-4.428 3.224 0 5.434 1.803 5.508 4.428H94.91c-.138-1.518-1.397-2.435-3.236-2.435-1.839 0-3.097.927-3.097 2.277 0 1.075.803 1.708 2.77 2.192l1.68.412c3.13.738 4.43 1.992 4.43 4.217 0 2.846-2.273 4.628-5.888 4.628-3.383 0-5.668-1.74-5.815-4.492h2.337Zm14.296-9.477v2.625h2.115v1.802h-2.115v6.115c0 .95.423 1.392 1.353 1.392a7.25 7.25 0 0 0 .751-.052v1.792a6.285 6.285 0 0 1-1.268.105c-2.252 0-3.13-.843-3.13-2.994V28.07h-1.617v-1.803h1.617v-2.625h2.294Zm3.338 8.171c0-3.49 2.061-5.683 5.275-5.683 3.225 0 5.276 2.193 5.276 5.683 0 3.499-2.04 5.682-5.276 5.682-3.234 0-5.275-2.183-5.275-5.682Zm8.225 0c0-2.394-1.1-3.807-2.95-3.807s-2.95 1.424-2.95 3.807c0 2.403 1.1 3.805 2.95 3.805s2.95-1.402 2.95-3.805Zm4.209-5.547h2.177v1.887h.053a2.656 2.656 0 0 1 2.675-2.004c.263 0 .525.028.782.086v2.129a3.198 3.198 0 0 0-1.026-.138 2.308 2.308 0 0 0-1.778.73 2.296 2.296 0 0 0-.6 1.822v6.579h-2.283V26.267Zm16.213 7.834c-.307 2.013-2.274 3.395-4.789 3.395-3.236 0-5.244-2.162-5.244-5.63 0-3.478 2.019-5.735 5.148-5.735 3.077 0 5.012 2.108 5.012 5.471v.78h-7.855v.138a2.874 2.874 0 0 0 .785 2.244 2.9 2.9 0 0 0 2.207.897 2.521 2.521 0 0 0 2.568-1.56h2.168Zm-7.718-3.31h5.561a2.662 2.662 0 0 0-1.653-2.615 2.678 2.678 0 0 0-1.075-.2 2.82 2.82 0 0 0-2.619 1.734 2.82 2.82 0 0 0-.214 1.08ZM46.467 10.696a3.252 3.252 0 0 1 2.587 1.002 3.231 3.231 0 0 1 .862 2.63c0 2.335-1.265 3.677-3.449 3.677H43.82v-7.309h2.647Zm-1.509 6.276h1.382a2.31 2.31 0 0 0 2.34-1.62c.101-.326.127-.671.077-1.01a2.298 2.298 0 0 0-1.42-2.448 2.315 2.315 0 0 0-.997-.165h-1.382v5.243Zm6.244-1.727a2.606 2.606 0 0 1 .67-2.006 2.62 2.62 0 0 1 3-.632 2.62 2.62 0 0 1 1.425 1.565c.116.345.157.71.123 1.073a2.609 2.609 0 0 1-1.548 2.643 2.628 2.628 0 0 1-3.002-.633 2.612 2.612 0 0 1-.668-2.01Zm4.095 0c0-1.195-.539-1.895-1.484-1.895-.95 0-1.483.7-1.483 1.895 0 1.206.534 1.9 1.483 1.9.945 0 1.484-.7 1.484-1.9Zm8.058 2.76h-1.133l-1.143-4.062h-.086l-1.139 4.062h-1.122l-1.524-5.516h1.107l.99 4.21h.082l1.138-4.21h1.047l1.137 4.21h.087l.986-4.21h1.091l-1.518 5.516Zm2.801-5.516h1.05v.876h.082a1.653 1.653 0 0 1 1.651-.983 1.804 1.804 0 0 1 1.853 1.257c.08.257.101.529.062.795v3.57h-1.092v-3.297c0-.886-.386-1.327-1.194-1.327a1.272 1.272 0 0 0-1.261.86 1.263 1.263 0 0 0-.06.538v3.227h-1.091v-5.516Zm6.437-2.153h1.092v7.67h-1.092v-7.67Zm2.609 4.908a2.607 2.607 0 0 1 1.549-2.639 2.628 2.628 0 0 1 3 .633 2.61 2.61 0 0 1 .67 2.006 2.607 2.607 0 0 1-1.548 2.643 2.626 2.626 0 0 1-3.55-1.568 2.607 2.607 0 0 1-.12-1.075Zm4.095 0c0-1.196-.539-1.895-1.484-1.895-.95 0-1.483.7-1.483 1.895 0 1.205.534 1.9 1.483 1.9.945 0 1.484-.7 1.484-1.9Zm2.273 1.202c0-.993.74-1.566 2.057-1.647l1.498-.086v-.476c0-.583-.386-.912-1.132-.912-.61 0-1.032.224-1.153.614h-1.057c.112-.948 1.005-1.556 2.26-1.556 1.387 0 2.17.689 2.17 1.854v3.769H85.16v-.775h-.086a1.86 1.86 0 0 1-1.662.866 1.676 1.676 0 0 1-1.697-.976 1.663 1.663 0 0 1-.146-.675Zm3.555-.472v-.46l-1.35.086c-.762.05-1.108.309-1.108.795 0 .497.432.785 1.026.785a1.308 1.308 0 0 0 1.295-.706c.079-.156.126-.325.137-.5Zm2.522-.729c0-1.743.898-2.847 2.296-2.847a1.827 1.827 0 0 1 1.696.967h.082v-3.03h1.092v7.67h-1.047v-.871h-.086a1.918 1.918 0 0 1-1.737.962c-1.407 0-2.296-1.104-2.296-2.851Zm1.128 0c0 1.17.553 1.874 1.478 1.874.92 0 1.488-.715 1.488-1.87 0-1.15-.574-1.873-1.488-1.873-.92 0-1.478.708-1.478 1.869Zm8.555 0a2.607 2.607 0 0 1 1.548-2.638 2.628 2.628 0 0 1 2.999.632 2.6 2.6 0 0 1 .67 2.006 2.614 2.614 0 0 1-2.61 2.867 2.628 2.628 0 0 1-1.94-.857 2.612 2.612 0 0 1-.668-2.01Zm4.094 0c0-1.195-.539-1.895-1.484-1.895-.95 0-1.483.7-1.483 1.895 0 1.206.534 1.9 1.483 1.9.945 0 1.484-.7 1.484-1.9Zm2.587-2.756h1.051v.876h.082a1.654 1.654 0 0 1 1.651-.983 1.8 1.8 0 0 1 1.914 2.052v3.57h-1.092v-3.297c0-.886-.386-1.327-1.193-1.327a1.273 1.273 0 0 0-1.262.86 1.274 1.274 0 0 0-.059.538v3.227h-1.092v-5.516Zm10.867-1.373v1.398h1.198v.917h-1.198v2.836c0 .578.238.831.782.831.139 0 .278-.008.416-.025v.907a3.587 3.587 0 0 1-.594.056c-1.214 0-1.697-.426-1.697-1.49v-3.115h-.878v-.917h.878v-1.398h1.093Zm2.689-.78h1.082v3.04h.087a1.698 1.698 0 0 1 1.686-.989 1.826 1.826 0 0 1 1.837 1.267c.081.255.104.525.068.79v3.561h-1.092v-3.293c0-.88-.412-1.327-1.183-1.327a1.294 1.294 0 0 0-1.393 1.399v3.221h-1.092v-7.67Zm11.126 6.179a2.25 2.25 0 0 1-2.397 1.596 2.517 2.517 0 0 1-2.469-1.773 2.488 2.488 0 0 1-.086-1.074 2.534 2.534 0 0 1 .616-2.021 2.54 2.54 0 0 1 1.934-.861c1.539 0 2.468 1.049 2.468 2.78v.38h-3.906v.062a1.447 1.447 0 0 0 .386 1.115 1.466 1.466 0 0 0 1.087.465 1.328 1.328 0 0 0 1.316-.669h1.051Zm-3.84-1.778h2.794a1.35 1.35 0 0 0-.074-.546 1.34 1.34 0 0 0-1.288-.883 1.417 1.417 0 0 0-1.328.88 1.4 1.4 0 0 0-.104.55Z"/></svg>
