<svg xmlns="http://www.w3.org/2000/svg" fill="none" viewBox="0 0 165 49"><path fill="#F5F6FF" d="M158.659.122H6.219C2.867.122.123 2.865.123 6.217v36.567c0 3.352 2.744 6.094 6.098 6.094H158.66c3.353 0 6.097-2.742 6.097-6.094V6.217c0-3.352-2.744-6.095-6.097-6.095Zm0 .975a5.126 5.126 0 0 1 5.121 5.12v36.567a5.126 5.126 0 0 1-5.121 5.12H6.219a5.127 5.127 0 0 1-5.121-5.12V6.217a5.127 5.127 0 0 1 5.122-5.12h152.439Z"/><path fill="#F5F6FF" d="M57.95 12.608c0 1.02-.303 1.834-.91 2.44-.688.722-1.585 1.083-2.688 1.083-1.056 0-1.953-.366-2.692-1.098-.74-.732-1.109-1.64-1.109-2.722 0-1.083.37-1.99 1.11-2.723.737-.731 1.635-1.098 2.691-1.098.525 0 1.026.103 1.503.307.476.205.858.477 1.144.817l-.643.643c-.485-.578-1.152-.867-2.004-.867-.77 0-1.436.27-1.998.812-.562.541-.843 1.244-.843 2.109s.281 1.567.843 2.11a2.782 2.782 0 0 0 1.998.811c.818 0 1.499-.272 2.044-.816.354-.355.559-.848.614-1.482h-2.657v-.878h3.545c.034.19.051.374.051.552Z"/><path fill="#F5F6FF" d="M57.95 12.608h-.123c0 .998-.292 1.773-.872 2.355h-.002v.002c-.667.696-1.523 1.043-2.6 1.044-1.028-.001-1.889-.352-2.607-1.062-.717-.712-1.072-1.58-1.073-2.636.002-1.056.356-1.924 1.073-2.635.718-.711 1.579-1.062 2.607-1.064.508 0 .992.1 1.453.297.463.2.828.46 1.1.784l.093-.079-.086-.086-.643.644.086.085.094-.078c-.507-.607-1.219-.913-2.097-.911a2.905 2.905 0 0 0-2.083.846c-.587.564-.882 1.306-.88 2.197-.002.89.293 1.633.88 2.197a2.905 2.905 0 0 0 2.083.846c.844.001 1.563-.285 2.13-.852.378-.38.592-.905.648-1.557l.012-.133h-2.669v-.634h3.424v-.122l-.12.021c.034.185.05.36.05.53h.243a3.19 3.19 0 0 0-.053-.573l-.018-.1h-3.77v1.122h2.78v-.122l-.122-.01c-.053.613-.249 1.075-.578 1.405-.524.522-1.167.78-1.957.781a2.658 2.658 0 0 1-1.914-.777c-.537-.52-.805-1.183-.806-2.022.001-.839.269-1.502.806-2.022a2.658 2.658 0 0 1 1.914-.777c.824.002 1.447.274 1.91.824l.085.102.737-.738.08-.079-.073-.085c-.3-.357-.699-.64-1.19-.85a3.897 3.897 0 0 0-1.55-.317c-1.084-.001-2.02.38-2.778 1.133-.762.753-1.146 1.698-1.145 2.809 0 1.11.383 2.056 1.145 2.81.759.752 1.694 1.133 2.779 1.132 1.129 0 2.065-.374 2.776-1.12l-.088-.084.086.086c.632-.631.945-1.483.944-2.527h-.122Zm5.62-3.055h-3.332v2.319h3.005v.879h-3.005v2.318h3.332v.899H59.3V8.654h4.271v.899Z"/><path fill="#F5F6FF" d="M63.57 9.553V9.43h-3.454v2.562h3.005v.635h-3.005v2.563h3.332v.655h-4.027v-7.07h4.027v.777h.122V9.43v.122h.122v-1.02h-4.515v7.558h4.515v-1.143H60.36v-2.075h3.005V11.75H60.36V9.675h3.332v-.122h-.122Zm3.965 6.415h-.94V9.553H64.55v-.899h5.028v.899h-2.044v6.415Z"/><path fill="#F5F6FF" d="M67.535 15.968v-.122h-.819V9.43h-2.043v-.655h4.784v.655h-2.044v6.537h.122v-.122.122h.122V9.675h2.044V8.531h-5.272v1.143h2.043v6.415h1.185v-.122h-.122Zm5.682 0V8.654h.94v7.314h-.94Z"/><path fill="#F5F6FF" d="M73.217 15.968h.122V8.776h.695v7.07h-.817v.122h.122-.122v.122h1.061V8.532h-1.183v7.558h.122v-.122Zm5.111 0h-.941V9.553h-2.044v-.899h5.028v.899h-2.043v6.415Z"/><path fill="#F5F6FF" d="M78.327 15.968v-.122h-.819V9.43h-2.043v-.655h4.784v.655h-2.044v6.537h.122v-.122.122h.122V9.675h2.044V8.531h-5.272v1.143h2.044v6.415h1.184v-.122h-.122Zm6.892-1.558c.541.548 1.204.822 1.988.822.783 0 1.446-.274 1.987-.822.542-.548.814-1.248.814-2.1 0-.85-.272-1.55-.814-2.098-.54-.548-1.204-.822-1.987-.822-.784 0-1.447.274-1.988.822-.541.548-.813 1.248-.813 2.099 0 .85.272 1.551.813 2.1Zm4.67.613c-.719.739-1.614 1.108-2.682 1.108-1.07 0-1.964-.37-2.682-1.108-.72-.739-1.078-1.643-1.078-2.712 0-1.069.358-1.973 1.078-2.712.718-.74 1.612-1.109 2.682-1.109 1.063 0 1.955.372 2.678 1.114.721.742 1.083 1.645 1.083 2.707 0 1.069-.36 1.973-1.079 2.712Z"/><path fill="#F5F6FF" d="m85.219 14.41-.087.086a2.81 2.81 0 0 0 2.075.858 2.808 2.808 0 0 0 2.074-.858c.565-.57.85-1.309.849-2.185 0-.877-.284-1.615-.85-2.185a2.808 2.808 0 0 0-2.073-.858 2.81 2.81 0 0 0-2.075.858c-.564.57-.849 1.309-.848 2.185-.001.877.284 1.614.848 2.185l.087-.086.086-.085c-.517-.527-.776-1.188-.777-2.014.001-.826.26-1.487.777-2.014.522-.526 1.146-.784 1.902-.785.755.001 1.38.26 1.9.785.519.527.777 1.188.778 2.014 0 .826-.26 1.487-.778 2.014-.52.526-1.145.784-1.9.785-.756-.001-1.38-.26-1.902-.785l-.086.085Zm4.67.613-.087-.085c-.699.716-1.554 1.07-2.595 1.071-1.042-.001-1.897-.355-2.595-1.071l-.004-.004.004.004c-.698-.719-1.042-1.585-1.043-2.627 0-1.042.345-1.908 1.043-2.627.698-.716 1.553-1.07 2.595-1.072 1.034.002 1.887.357 2.59 1.077.7.722 1.047 1.587 1.049 2.622-.002 1.042-.347 1.908-1.044 2.627l.087.085.088.084c.74-.759 1.113-1.7 1.112-2.796.001-1.09-.374-2.03-1.117-2.792-.743-.765-1.674-1.152-2.765-1.15-1.098-.002-2.032.383-2.77 1.146-.74.759-1.113 1.7-1.112 2.796-.001 1.096.371 2.037 1.112 2.797l.003.003-.003-.004c.738.763 1.672 1.147 2.77 1.146 1.097 0 2.03-.383 2.77-1.146l-.088-.084Zm2.398.945V8.654h1.144l3.556 5.69h.04l-.04-1.41v-4.28h.941v7.314h-.981l-3.72-5.965h-.041l.04 1.41v4.555h-.939Z"/><path fill="#F5F6FF" d="M92.287 15.968h.122V8.776h.955l3.556 5.69h.233l-.044-1.534V8.776h.697v7.07h-.791l-3.72-5.965h-.235l.043 1.533v4.432h-.817v.122h.122-.122v.122h1.061v-4.68l-.04-1.41-.122.002v.122h.04v-.122l-.103.065 3.756 6.023h1.171V8.532h-1.184v4.404l.04 1.41.122-.002v-.122h-.04v.122l.103-.065-3.592-5.747h-1.334v7.558h.122v-.122Zm38.245 20.722h2.275V21.452h-2.275V36.69Zm20.496-9.75-2.608 6.607h-.079l-2.707-6.606h-2.451l4.06 9.233-2.315 5.136h2.374l6.257-14.37h-2.531Zm-12.905 8.019c-.746 0-1.785-.373-1.785-1.294 0-1.176 1.295-1.627 2.412-1.627 1.001 0 1.471.215 2.079.51a2.758 2.758 0 0 1-2.706 2.41Zm.275-8.352c-1.648 0-3.354.726-4.06 2.333l2.019.843c.432-.843 1.236-1.117 2.08-1.117 1.176 0 2.373.706 2.392 1.96v.157c-.412-.235-1.294-.588-2.373-.588-2.177 0-4.394 1.195-4.394 3.43 0 2.04 1.786 3.353 3.786 3.353 1.53 0 2.373-.686 2.903-1.49h.078v1.176h2.197v-5.842c0-2.705-2.02-4.215-4.628-4.215Zm-14.064 2.189h-3.236v-5.223h3.236c1.701 0 2.667 1.407 2.667 2.611 0 1.18-.966 2.612-2.667 2.612Zm-.058-7.344h-5.453V36.69h2.275v-5.774h3.178c2.522 0 5.001-1.825 5.001-4.732s-2.479-4.732-5.001-4.732Zm-29.733 13.51c-1.572 0-2.889-1.316-2.889-3.123 0-1.826 1.317-3.161 2.889-3.161 1.552 0 2.77 1.335 2.77 3.161 0 1.807-1.218 3.123-2.77 3.123Zm2.613-7.168h-.079c-.51-.609-1.493-1.159-2.731-1.159-2.593 0-4.97 2.278-4.97 5.204 0 2.906 2.377 5.165 4.97 5.165 1.238 0 2.22-.55 2.731-1.178h.079v.746c0 1.983-1.061 3.044-2.77 3.044-1.395 0-2.26-1.002-2.614-1.846l-1.984.824c.57 1.375 2.083 3.064 4.597 3.064 2.672 0 4.932-1.571 4.932-5.4V26.95h-2.161v.844Zm3.732 8.896h2.279V21.45h-2.279v15.24Zm5.639-5.028c-.059-2.003 1.552-3.023 2.711-3.023.905 0 1.671.45 1.925 1.1l-4.636 1.923Zm7.073-1.727c-.432-1.16-1.749-3.3-4.44-3.3-2.672 0-4.892 2.102-4.892 5.185 0 2.906 2.2 5.184 5.147 5.184 2.378 0 3.753-1.453 4.323-2.298l-1.768-1.178c-.589.864-1.396 1.434-2.555 1.434-1.159 0-1.984-.53-2.515-1.571l6.935-2.867-.235-.59Zm-55.254-1.709v2.2h5.265c-.157 1.236-.57 2.14-1.198 2.768-.766.766-1.965 1.61-4.067 1.61-3.242 0-5.776-2.611-5.776-5.851 0-3.24 2.534-5.852 5.776-5.852 1.749 0 3.026.687 3.969 1.57l1.552-1.55c-1.316-1.258-3.065-2.22-5.52-2.22-4.441 0-8.174 3.614-8.174 8.052s3.733 8.05 8.173 8.05c2.397 0 4.205-.784 5.619-2.258 1.454-1.453 1.906-3.495 1.906-5.144 0-.511-.04-.982-.118-1.375h-7.407Zm13.511 6.736c-1.572 0-2.928-1.297-2.928-3.142 0-1.866 1.356-3.142 2.928-3.142 1.571 0 2.927 1.276 2.927 3.142 0 1.846-1.356 3.142-2.927 3.142Zm0-8.327c-2.869 0-5.207 2.18-5.207 5.185 0 2.984 2.338 5.184 5.207 5.184 2.868 0 5.206-2.2 5.206-5.184 0-3.005-2.338-5.185-5.206-5.185Zm11.358 8.326c-1.572 0-2.928-1.295-2.928-3.141 0-1.866 1.356-3.142 2.927-3.142 1.572 0 2.928 1.276 2.928 3.142 0 1.846-1.356 3.142-2.927 3.142Zm0-8.326c-2.87 0-5.207 2.18-5.207 5.185 0 2.984 2.338 5.184 5.207 5.184 2.868 0 5.206-2.2 5.206-5.184 0-3.005-2.338-5.185-5.207-5.185Z"/><path fill="url(#a)" d="m12.939 39.602-.09-.087c-.356-.375-.565-.958-.565-1.713v.178-26.964.185c0-.817.244-1.433.653-1.802l15.11 15.102-15.108 15.1Zm-.655-28.587Zm.005-.2v-.002.002Zm0-.008v-.002.002Z"/><path fill="url(#b)" d="m33.083 29.715.114-.065 5.967-3.389c.57-.323.948-.715 1.138-1.13-.19.415-.568.808-1.138 1.13l-5.967 3.39-.114.064Zm.001-.178L28.047 24.5l5.037-5.035 6.08 3.453c.773.439 1.206 1.004 1.279 1.582v.002c-.073.576-.506 1.142-1.279 1.58l-6.08 3.454Z"/><path fill="url(#c)" d="M14.016 40.177Zm0-.179c-.422 0-.79-.137-1.077-.396L28.047 24.5l5.037 5.036-17.702 10.052c-.49.278-.953.41-1.366.41Zm-1.082-.22a1.662 1.662 0 0 1-.078-.077l.078.076Z"/><path fill="url(#d)" d="M28.047 24.5 12.937 9.4a1.57 1.57 0 0 1 1.077-.396c.413 0 .878.131 1.369.41l17.7 10.052-5.036 5.035Zm5.15-5.148L15.382 9.236c-.49-.279-.955-.41-1.368-.41h-.005.007c.412 0 .876.13 1.367.409l17.814 10.117Z"/><path fill="url(#e)" d="m33.083 29.715.114-.065-.114.065Z"/><path fill="url(#f)" d="M14.017 40.177c-.422 0-.791-.138-1.078-.397a.026.026 0 0 0-.005-.003l-.078-.076-.008-.008.09-.091c.288.26.656.397 1.078.396.413 0 .877-.131 1.367-.409l17.701-10.052.113.113-.114.065-17.7 10.052c-.447.253-.871.385-1.255.407a2.336 2.336 0 0 1-.111.003Z"/><path fill="url(#g)" d="M12.848 39.693c-.355-.376-.564-.958-.564-1.713v-.177c0 .754.21 1.337.564 1.712l.09.087-.09.09Z"/><path fill="url(#h)" d="m12.848 39.693.09-.091-.09.09Z"/><path fill="url(#i)" d="m33.197 29.65-.113-.113 6.08-3.454c.773-.438 1.206-1.004 1.279-1.58 0 .211-.048.423-.141.628-.19.415-.569.807-1.138 1.13l-5.967 3.389Z"/><path fill="#404040" d="M40.443 24.5c0-.637-.427-1.275-1.279-1.759l-5.967-3.388 5.967 3.388c.853.484 1.28 1.122 1.279 1.76Z"/><path fill="url(#j)" d="M40.443 24.5c-.073-.577-.506-1.142-1.279-1.58l-6.08-3.454.113-.113 5.967 3.388c.852.484 1.278 1.122 1.279 1.76Z"/><path fill="#404040" d="M12.284 11.017v-.002.002Zm.005-.198v-.003.003Zm0-.006v-.006.006Zm0-.007c.071-1.252.752-1.976 1.715-1.98-.418.002-.781.14-1.066.396l-.003.003c-.03.027-.059.056-.087.085-.32.339-.522.846-.559 1.496Z"/><path fill="url(#k)" d="M12.284 11.201v-.186c0-.067.002-.133.005-.197v-.013c.037-.65.239-1.157.559-1.495l.089.09c-.41.368-.653.984-.653 1.801Zm.65-1.976.004-.004-.003.004Z"/><path fill="url(#l)" d="M33.084 19.466 15.383 9.414c-.491-.278-.955-.41-1.37-.41-.42 0-.788.137-1.076.395l-.089-.089c.028-.03.057-.058.087-.085l.003-.003a1.57 1.57 0 0 1 1.067-.396h.009c.414 0 .878.132 1.369.41l17.814 10.117-.113.113Z"/><defs><linearGradient id="a" x1="26.707" x2="6.251" y1="10.738" y2="31.205" gradientUnits="userSpaceOnUse"><stop stop-color="#00A0FF"/><stop offset=".007" stop-color="#00A1FF"/><stop offset=".26" stop-color="#00BEFF"/><stop offset=".512" stop-color="#00D2FF"/><stop offset=".76" stop-color="#00DFFF"/><stop offset="1" stop-color="#00E3FF"/></linearGradient><linearGradient id="b" x1="41.383" x2="11.875" y1="24.502" y2="24.502" gradientUnits="userSpaceOnUse"><stop stop-color="#FFE000"/><stop offset=".409" stop-color="#FFBD00"/><stop offset=".775" stop-color="orange"/><stop offset="1" stop-color="#FF9C00"/></linearGradient><linearGradient id="c" x1="30.399" x2="2.658" y1="27.299" y2="55.053" gradientUnits="userSpaceOnUse"><stop stop-color="#FF3A44"/><stop offset="1" stop-color="#C31162"/></linearGradient><linearGradient id="d" x1="9.021" x2="21.408" y1=".337" y2="12.73" gradientUnits="userSpaceOnUse"><stop stop-color="#32A071"/><stop offset=".069" stop-color="#2DA771"/><stop offset=".476" stop-color="#15CF74"/><stop offset=".801" stop-color="#06E775"/><stop offset="1" stop-color="#00F076"/></linearGradient><linearGradient id="e" x1="41.385" x2="11.87" y1="24.498" y2="24.498" gradientUnits="userSpaceOnUse"><stop stop-color="#CCB300"/><stop offset=".409" stop-color="#CC9700"/><stop offset=".775" stop-color="#CC8400"/><stop offset="1" stop-color="#CC7D00"/></linearGradient><linearGradient id="f" x1="30.399" x2="2.659" y1="27.299" y2="55.053" gradientUnits="userSpaceOnUse"><stop stop-color="#CC2E36"/><stop offset="1" stop-color="#9C0E4E"/></linearGradient><linearGradient id="g" x1="26.7" x2="6.244" y1="10.738" y2="31.195" gradientUnits="userSpaceOnUse"><stop stop-color="#008DE0"/><stop offset=".007" stop-color="#008DE0"/><stop offset=".26" stop-color="#00A7E0"/><stop offset=".512" stop-color="#00B8E0"/><stop offset=".76" stop-color="#00C4E0"/><stop offset="1" stop-color="#00C7E0"/></linearGradient><linearGradient id="h" x1="30.403" x2="2.643" y1="27.29" y2="55.051" gradientUnits="userSpaceOnUse"><stop stop-color="#E0333C"/><stop offset="1" stop-color="#AB0F56"/></linearGradient><linearGradient id="i" x1="41.383" x2="11.875" y1="24.502" y2="24.502" gradientUnits="userSpaceOnUse"><stop stop-color="#E0C500"/><stop offset=".409" stop-color="#E0A600"/><stop offset=".775" stop-color="#E09100"/><stop offset="1" stop-color="#E08900"/></linearGradient><linearGradient id="j" x1="41.383" x2="11.875" y1="24.502" y2="24.502" gradientUnits="userSpaceOnUse"><stop stop-color="#FFE840"/><stop offset=".409" stop-color="#FFCE40"/><stop offset=".775" stop-color="#FFBC40"/><stop offset="1" stop-color="#FFB540"/></linearGradient><linearGradient id="k" x1="26.7" x2="6.244" y1="10.738" y2="31.195" gradientUnits="userSpaceOnUse"><stop stop-color="#40B8FF"/><stop offset=".007" stop-color="#40B9FF"/><stop offset=".26" stop-color="#40CEFF"/><stop offset=".512" stop-color="#40DDFF"/><stop offset=".76" stop-color="#40E7FF"/><stop offset="1" stop-color="#40EAFF"/></linearGradient><linearGradient id="l" x1="9.021" x2="21.408" y1=".337" y2="12.73" gradientUnits="userSpaceOnUse"><stop stop-color="#65B895"/><stop offset=".069" stop-color="#62BD95"/><stop offset=".476" stop-color="#50DB97"/><stop offset=".801" stop-color="#44ED98"/><stop offset="1" stop-color="#40F498"/></linearGradient></defs></svg>
